<?xml version="1.0" encoding="utf-8"?>
<!-- Generator: Adobe Illustrator 27.4.0, SVG Export Plug-In . SVG Version: 6.00 Build 0)  -->
<svg version="1.1" id="Logo" xmlns="http://www.w3.org/2000/svg" xmlns:xlink="http://www.w3.org/1999/xlink" x="0px" y="0px"
	 viewBox="0 0 893.09 555.98" style="enable-background:new 0 0 893.09 555.98;" xml:space="preserve">
<style type="text/css">
	.st0{fill:#1C2B39;}
	.st1{fill:#60AAAD;}
	.st2{fill:#19668D;}
	.st3{fill:#FFFFFF;}
	.st4{fill:#BDDBDD;}
	.st5{fill:#414E52;}
</style>
<g>
	<g>
		<g>
			<path class="st1" d="M168.72,297.09l-10.18-10.19l-9.75,9.75l18.16,18.16v-1.56C166.94,307.82,167.56,302.4,168.72,297.09z"/>
			<path class="st1" d="M241.51,389.41l18.16,18.16l0.02-0.02l18.62,18.62l8.91,8.91c4.91,4.91,4.91,12.91,0,17.82l-8.91,8.91
				l-8.91-8.91c-2.38-2.38-3.69-5.54-3.69-8.91c0-3.37,1.31-6.53,3.69-8.91l-9.75-9.75c-4.98,4.98-7.73,11.61-7.73,18.66
				c0,7.05,2.75,13.68,7.73,18.66l18.66,18.66l18.66-18.66c10.29-10.29,10.29-27.03,0-37.32l-18.66-18.66l-19.03-19.03
				c-5.27,1.14-10.69,1.76-16.2,1.76H241.51z"/>
			<path class="st1" d="M387.96,258.94l10.19,10.19l9.75-9.75l-18.16-18.16v1.56C389.73,248.21,389.11,253.63,387.96,258.94z"/>
			<path class="st1" d="M259.22,168.35l10.19-10.18l-9.75-9.75l-18.16,18.16h1.56C248.49,166.58,253.91,167.2,259.22,168.35z"/>
			<path class="st1" d="M315.08,166.62l-18.16-18.16l-0.02,0.02l-18.62-18.62l-8.91-8.91c-4.91-4.91-4.91-12.91,0-17.82l8.91-8.91
				l8.91,8.91c2.38,2.38,3.69,5.54,3.69,8.91c0,3.37-1.31,6.53-3.69,8.91l9.75,9.75c4.98-4.98,7.73-11.61,7.73-18.66
				c0-7.05-2.75-13.68-7.73-18.66l-18.66-18.66l-18.66,18.66c-10.29,10.29-10.29,27.03,0,37.32l18.66,18.66l19.03,19.03
				c5.27-1.14,10.69-1.76,16.2-1.76H315.08z"/>
			<path class="st1" d="M166.9,241.23l-18.16,18.16l0.02,0.02l-18.62,18.62l-8.91,8.91c-2.46,2.46-5.68,3.69-8.91,3.69
				c-3.23,0-6.45-1.23-8.91-3.68l-8.91-8.91l8.91-8.91c2.38-2.38,5.54-3.69,8.91-3.69c3.37,0,6.53,1.31,8.91,3.69l9.75-9.75
				c-4.98-4.98-11.61-7.73-18.66-7.73c-7.05,0-13.68,2.75-18.66,7.73l-18.66,18.66l18.66,18.66c5.14,5.14,11.9,7.71,18.66,7.71
				c6.76,0,13.52-2.57,18.66-7.72l18.66-18.66l19.04-19.04c-1.14-5.22-1.78-10.63-1.78-16.19V241.23z"/>
			<path class="st1" d="M462.93,259.33c-5.14-5.14-11.9-7.71-18.66-7.71c-6.76,0-13.52,2.57-18.66,7.72L406.95,278l-19.04,19.04
				c1.14,5.22,1.78,10.63,1.78,16.19v1.56l18.16-18.16l-0.02-0.02L426.45,278l8.91-8.91c2.46-2.46,5.68-3.69,8.91-3.69
				s6.45,1.23,8.91,3.68l8.91,8.91l-8.91,8.91c-2.38,2.38-5.54,3.69-8.91,3.69c-3.37,0-6.53-1.31-8.91-3.69l-9.75,9.75
				c4.98,4.98,11.61,7.73,18.66,7.73c7.05,0,13.68-2.75,18.66-7.73L481.6,278L462.93,259.33z"/>
			<path class="st1" d="M297.37,387.68l-10.19,10.18l9.75,9.75l18.16-18.16h-1.56C308.1,389.45,302.68,388.83,297.37,387.68z"/>
			<g>
				<path class="st1" d="M227.84,351.56c-0.23-0.5-0.45-1.01-0.67-1.51c-0.15-0.35-0.31-0.7-0.46-1.05
					c-0.15-0.38-0.29-0.76-0.44-1.14c-0.05-0.13-0.1-0.26-0.15-0.39c0.78,0.03,1.57,0.04,2.35,0.04c5.41,0,10.82-0.63,16.12-1.89
					c-0.38-0.8-0.74-1.6-1.08-2.41l-0.03-0.06c-0.05-0.11-0.1-0.22-0.15-0.35c-0.37-0.88-0.7-1.75-1.01-2.55l-0.12-0.3
					c-0.09-0.23-0.18-0.47-0.27-0.72c-0.19-0.52-0.36-1.04-0.53-1.56l-0.11-0.34l-0.13-0.39c-0.15-0.46-0.31-0.91-0.45-1.38
					c-0.08-0.25-0.15-0.51-0.22-0.77l-0.09-0.31c-0.17-0.58-0.36-1.24-0.54-1.93c-3.75,0.78-7.56,1.18-11.38,1.18
					c-1.88,0-3.76-0.09-5.63-0.28c-0.01-0.04-0.01-0.09-0.02-0.13c-0.18-1.82-0.27-3.65-0.27-5.5c0-1.85,0.09-3.68,0.27-5.5
					c0.02-0.2,0.05-0.39,0.07-0.59c0.07-0.69,0.15-1.37,0.25-2.05c0.04-0.27,0.09-0.54,0.14-0.81h-13.94
					c-0.1,0.75-0.18,1.49-0.25,2.25c-0.03,0.26-0.04,0.53-0.06,0.79c-0.07,0.84-0.14,1.69-0.18,2.54c-0.05,1.12-0.08,2.25-0.08,3.38
					c0,0,0,0.01,0,0.01c0,0.78,0.03,1.56,0.06,2.34c-5.27-1.98-10.3-4.78-14.88-8.4v16.59c5.41,3.09,11.15,5.4,17.05,6.92
					c0.74,2.86,1.65,5.67,2.74,8.4c0.05,0.12,0.09,0.25,0.14,0.37c0.32,0.78,0.66,1.54,1,2.31c0.13,0.3,0.26,0.6,0.4,0.9
					c0.26,0.56,0.54,1.1,0.81,1.65c0.25,0.5,0.49,1.01,0.76,1.5c0.16,0.31,0.34,0.61,0.51,0.91c0.19,0.35,0.4,0.69,0.59,1.04
					l16.61,0c-2.54-3.2-4.7-6.64-6.46-10.26C228.02,351.93,227.92,351.75,227.84,351.56z"/>
			</g>
			<g>
				<path class="st1" d="M235.17,208.81c-0.26-0.03-0.52-0.04-0.79-0.06c-0.84-0.07-1.69-0.14-2.54-0.18
					c-1.12-0.05-2.25-0.08-3.38-0.08c0,0-0.01,0-0.01,0c-0.78,0-1.56,0.03-2.34,0.06c1.98-5.27,4.78-10.3,8.4-14.88h-16.59
					c-3.09,5.41-5.4,11.15-6.92,17.05c-2.86,0.74-5.67,1.65-8.4,2.74c-0.12,0.05-0.25,0.09-0.37,0.14c-0.78,0.32-1.54,0.66-2.31,1
					c-0.3,0.13-0.6,0.26-0.9,0.4c-0.56,0.26-1.1,0.54-1.65,0.81c-0.5,0.25-1.01,0.49-1.5,0.76c-0.31,0.16-0.61,0.34-0.91,0.51
					c-0.35,0.19-0.7,0.4-1.04,0.59l0,16.61c3.2-2.54,6.64-4.7,10.26-6.46c0.19-0.09,0.37-0.19,0.55-0.27
					c0.5-0.23,1.01-0.45,1.51-0.67c0.35-0.15,0.7-0.31,1.05-0.46c0.38-0.15,0.76-0.29,1.14-0.44c0.13-0.05,0.26-0.1,0.39-0.15
					c-0.21,6.19,0.42,12.41,1.85,18.46c0.8-0.37,1.6-0.74,2.41-1.08l0.07-0.03c0.11-0.05,0.21-0.1,0.34-0.15
					c0.88-0.37,1.75-0.7,2.55-1.01l0.3-0.12c0.24-0.09,0.47-0.19,0.72-0.28c0.51-0.19,1.03-0.36,1.54-0.53l0.35-0.12l0.39-0.13
					c0.45-0.15,0.9-0.3,1.38-0.45c0.25-0.08,0.51-0.15,0.76-0.22l0.32-0.09c0.58-0.17,1.24-0.36,1.93-0.54
					c-1.16-5.6-1.47-11.34-0.9-17.01c0.04,0,0.09-0.01,0.13-0.02c1.82-0.18,3.65-0.27,5.5-0.27c1.85,0,3.68,0.09,5.5,0.27
					c0.2,0.02,0.39,0.05,0.59,0.07c0.69,0.07,1.37,0.15,2.05,0.25c0.17,0.02,0.33,0.06,0.5,0.08v-13.92
					C236.47,208.95,235.82,208.88,235.17,208.81z"/>
			</g>
			<g>
				<path class="st1" d="M352.4,328.2c-0.19,0.09-0.37,0.19-0.55,0.27c-0.5,0.23-1.01,0.45-1.51,0.67c-0.35,0.15-0.7,0.31-1.05,0.46
					c-0.38,0.15-0.76,0.29-1.14,0.44c-0.13,0.05-0.26,0.1-0.39,0.15c0.21-6.19-0.42-12.4-1.85-18.46c-0.79,0.37-1.59,0.73-2.4,1.08
					l-0.07,0.03c-0.12,0.05-0.23,0.1-0.35,0.15c-0.88,0.37-1.75,0.71-2.55,1.01l-0.3,0.12c-0.24,0.09-0.47,0.18-0.72,0.27
					c-0.52,0.19-1.04,0.36-1.56,0.53l-0.33,0.11l-0.38,0.13c-0.46,0.15-0.92,0.31-1.39,0.46c-0.25,0.08-0.51,0.15-0.76,0.22
					l-0.32,0.09c-0.58,0.17-1.24,0.36-1.93,0.54c1.16,5.6,1.47,11.34,0.9,17.01c-0.04,0.01-0.09,0.01-0.13,0.02
					c-1.82,0.18-3.65,0.27-5.5,0.27c-1.85,0-3.68-0.09-5.5-0.27c-0.2-0.02-0.39-0.05-0.59-0.07c-0.69-0.07-1.37-0.15-2.05-0.25
					c-0.29-0.04-0.58-0.1-0.87-0.15v13.94c0.77,0.1,1.53,0.19,2.31,0.26c0.26,0.03,0.52,0.04,0.79,0.06
					c0.84,0.07,1.69,0.14,2.54,0.18c1.12,0.05,2.25,0.08,3.38,0.08c0,0,0.01,0,0.01,0c0.78,0,1.56-0.03,2.34-0.06
					c-1.98,5.27-4.78,10.3-8.4,14.88h16.59c3.09-5.41,5.4-11.15,6.92-17.05c2.86-0.74,5.67-1.65,8.4-2.75
					c0.12-0.05,0.25-0.09,0.37-0.14c0.78-0.32,1.54-0.66,2.31-1c0.3-0.13,0.6-0.26,0.9-0.4c0.56-0.26,1.1-0.54,1.65-0.81
					c0.5-0.25,1.01-0.49,1.5-0.76c0.31-0.16,0.61-0.34,0.91-0.51c0.35-0.19,0.7-0.4,1.04-0.59l0-16.61
					C359.46,324.28,356.02,326.44,352.4,328.2z"/>
			</g>
			<g>
				<path class="st1" d="M347.49,234.89c0.02-0.26,0.04-0.52,0.06-0.79c0.07-0.84,0.14-1.69,0.18-2.54
					c0.05-1.12,0.08-2.25,0.08-3.38c0,0,0-0.01,0-0.01c0-0.78-0.03-1.56-0.06-2.34c5.27,1.98,10.3,4.78,14.88,8.4v-16.59
					c-5.41-3.09-11.15-5.4-17.05-6.92c-0.74-2.86-1.65-5.67-2.75-8.4c-0.05-0.12-0.09-0.25-0.14-0.37c-0.32-0.78-0.66-1.54-1-2.31
					c-0.13-0.3-0.26-0.6-0.4-0.9c-0.26-0.56-0.54-1.1-0.81-1.65c-0.25-0.5-0.49-1.01-0.76-1.5c-0.16-0.31-0.34-0.61-0.51-0.91
					c-0.19-0.35-0.4-0.7-0.59-1.04h-16.61c2.54,3.2,4.7,6.64,6.45,10.26c0.09,0.19,0.19,0.37,0.27,0.55
					c0.23,0.5,0.45,1.01,0.67,1.51c0.15,0.35,0.31,0.7,0.46,1.05c0.15,0.38,0.29,0.76,0.44,1.14c0.05,0.13,0.1,0.26,0.15,0.39
					c-0.78-0.03-1.57-0.04-2.35-0.04c-5.41,0-10.82,0.63-16.12,1.88c0.38,0.8,0.74,1.61,1.09,2.42l0.03,0.06
					c0.05,0.11,0.1,0.22,0.15,0.35c0.37,0.88,0.7,1.75,1.01,2.55l0.12,0.3c0.09,0.23,0.18,0.47,0.27,0.72
					c0.19,0.52,0.36,1.04,0.53,1.56l0.11,0.34l0.13,0.39c0.15,0.46,0.31,0.91,0.45,1.38c0.08,0.26,0.15,0.51,0.22,0.77l0.09,0.31
					c0.17,0.58,0.36,1.24,0.54,1.93c3.75-0.78,7.56-1.18,11.38-1.18c1.88,0,3.76,0.09,5.63,0.28c0,0.04,0.01,0.09,0.02,0.13
					c0.18,1.82,0.27,3.65,0.27,5.5c0,1.85-0.09,3.68-0.27,5.5c-0.02,0.2-0.05,0.39-0.07,0.59c-0.07,0.69-0.15,1.37-0.25,2.05
					c-0.06,0.43-0.14,0.86-0.22,1.29h13.95C347.29,236.72,347.41,235.8,347.49,234.89z"/>
			</g>
			<g>
				<g>
					<path class="st1" d="M369.24,243.57v-56.68V160.5c0-14.55,11.84-26.39,26.39-26.39h26.39l0,26.39c0,7.05-2.74,13.67-7.73,18.66
						c-4.98,4.98-11.61,7.73-18.66,7.73l0-13.79c3.37,0,6.53-1.31,8.91-3.69c2.38-2.38,3.69-5.54,3.69-8.91l0-12.6l-12.6,0
						c-6.95,0-12.55,5.65-12.56,12.6v83.07H369.24z"/>
					<path class="st1" d="M291.93,184.42l0.16,0.14c0.64,0.54,1.38,1.16,2.11,1.83c0.87,0.79,1.73,1.61,2.55,2.42l0.04,0.04
						l0.12,0.12c0.14,0.14,0.28,0.3,0.42,0.44c5.12-1.55,10.54-2.4,16.16-2.4l43.23,0v-13.79h-43.22c-10.1,0-19.7,2.18-28.38,6.08
						c2.19,1.45,4.3,3.02,6.34,4.7C291.61,184.15,291.77,184.29,291.93,184.42z"/>
					<path class="st1" d="M264.61,371.6l-0.16-0.14c-0.65-0.55-1.38-1.16-2.11-1.83c-0.87-0.79-1.73-1.61-2.55-2.42l-0.01-0.01
						l-0.12-0.12c-0.15-0.15-0.3-0.32-0.45-0.47c-5.12,1.55-10.54,2.4-16.16,2.4l-43.23,0v13.79h43.22c10.1,0,19.7-2.18,28.37-6.08
						c-2.19-1.45-4.3-3.02-6.33-4.7C264.93,371.88,264.77,371.74,264.61,371.6z"/>
					<path class="st1" d="M173.5,312.32v44.14l0.02,0l0,26.33l0,12.6c0,6.95-5.65,12.6-12.6,12.6l-12.6,0l0-12.6
						c0-3.37,1.31-6.53,3.69-8.91c2.38-2.38,5.54-3.69,8.91-3.69l0-13.79c-7.05,0-13.68,2.74-18.66,7.73
						c-4.98,4.98-7.73,11.61-7.73,18.66l0,26.39h26.39c14.55,0,26.39-11.84,26.39-26.39V369v-56.68H173.5z"/>
					<path class="st1" d="M160.89,173.24c-6.95,0-12.6-5.63-12.6-12.58l0-12.6l12.6,0c3.37,0,6.53,1.31,8.91,3.69
						c2.38,2.38,3.69,5.54,3.69,8.91l13.79,0c0-7.05-2.74-13.68-7.73-18.66c-4.98-4.98-11.61-7.73-18.66-7.73l-26.39,0v26.39
						c0,14.55,11.84,26.39,26.39,26.39h26.39h56.56v-13.81H160.89z"/>
					<path class="st1" d="M184.68,264.36l0.14-0.17c0.55-0.65,1.17-1.38,1.83-2.11c0.8-0.88,1.63-1.75,2.46-2.59l0.13-0.14
						l0.09-0.08c0.11-0.11,0.23-0.22,0.34-0.33c-1.55-5.12-2.4-10.54-2.4-16.15l0-43.23H173.5v43.23c0,10.1,2.18,19.7,6.08,28.37
						c1.45-2.19,3.02-4.3,4.7-6.33C184.4,264.67,184.54,264.51,184.68,264.36z"/>
					<path class="st1" d="M371.86,291.67l-0.15,0.17c-0.55,0.65-1.17,1.38-1.83,2.11c-0.81,0.9-1.66,1.78-2.51,2.63l-0.01,0.01
						l-0.03,0.03c-0.15,0.15-0.32,0.3-0.47,0.45c1.55,5.12,2.4,10.54,2.4,16.16l0,43.23h13.79v-43.22c0-10.1-2.18-19.7-6.08-28.37
						c-1.45,2.19-3.02,4.3-4.7,6.34C372.14,291.35,372,291.51,371.86,291.67z"/>
					<path class="st1" d="M395.65,382.76c6.95,0,12.6,5.65,12.6,12.6l0,12.6l-12.6,0c-3.37,0-6.53-1.31-8.91-3.69
						c-2.38-2.38-3.69-5.54-3.69-8.91l-13.79,0c0,7.05,2.74,13.68,7.73,18.66c4.98,4.98,11.61,7.73,18.66,7.73l26.39,0v-26.39
						c0-14.55-11.84-26.39-26.39-26.39h-26.39H312.7v13.79H395.65z"/>
				</g>
			</g>
		</g>
		<g>
			<path class="st2" d="M298.93,311.95v55.1c-23.92-6.47-41.14-28.37-41.14-53.82c0-8.11-6.6-14.71-14.71-14.71h-53.82
				c6.45-23.95,28.36-41.19,53.83-41.19h1.17c-0.25-2.24-0.38-4.52-0.38-6.83v-6.96h-0.78c-35.07,0-69.57,29.33-69.57,68.76h69.56
				c0.51,0,0.92,0.42,0.92,0.93c0,35.07,29.56,69.54,68.71,69.54v-70.46h-7.04C303.4,312.33,301.15,312.19,298.93,311.95z"/>
			<g>
				<path class="st2" d="M383.07,243.56c0,39.43-34.5,68.76-69.57,68.76h-7.82c-34.14,0-61.81-27.67-61.81-61.81v-77.28
					c39.15,0,68.71,34.32,68.71,69.4c0,0.51,0.41,0.93,0.92,0.93H383.07z M257.66,188.82v61.69c0,26.48,21.54,48.03,48.02,48.03
					h7.82c25.47,0,47.38-17.24,53.83-41.19h-53.82c-8.11,0-14.71-6.6-14.71-14.71C298.8,217.19,281.58,195.29,257.66,188.82z"/>
			</g>
		</g>
	</g>
</g>
<g>
	<g>
		<g>
			<path class="st2" d="M725.25,248.4c-4.02,2.84-11.21,7.36-21.08,7.36c-11.19,0-17.41-6.53-19.88-14.61
				c-8.48,0.11-15.53-0.89-20.44-1.92c3.07,19.08,14.81,31.76,38.14,31.76c15.73,0,26.77-7.03,29.45-9.37L725.25,248.4z"/>
			<path class="st2" d="M684.94,234.31c2.97-0.08,6.4-0.28,10.03-0.72c0.09-0.01,0.19-0.02,0.28-0.04c0.47-0.06,0.94-0.12,1.41-0.19
				c0.5-0.07,1-0.15,1.51-0.23c15.2-2.39,32.26-9.24,32.26-28.07c0-14.89-10.21-23.26-26.6-23.26c-23.28,0-37.08,16.65-40.16,37.29
				l0,0.08c-7.51-2.16-13.53-6.15-13.53-13.28v-19.06c0-9.2,3.18-13.89,11.54-13.89c4.69,0,11.04,1.67,15.9,4.18l4.85-13.39
				c-5.69-3.18-15.9-5.86-23.26-5.86c-25.93,0-28.95,17.07-28.95,30.45v101.35h19.91v-61.97c3.99,2.07,8.48,3.51,12.98,4.5
				c0,0,0,0.01,0,0.01C668.16,233.35,675.74,234.5,684.94,234.31z M702.66,196.03c6.03,0,10.04,3.68,10.04,9.87
				c0,12.88-21.25,15.73-30.28,15.56C682.92,209.09,689.28,196.03,702.66,196.03z"/>
			<path class="st2" d="M614.74,158.17c-6.86,0-11.54,5.02-11.54,11.2c0,6.35,4.52,11.03,11.54,11.03c6.69,0,11.54-4.68,11.54-11.03
				C626.28,163.18,621.59,158.17,614.74,158.17z"/>
			<path class="st2" d="M580.12,270.57c3.57-0.13,7.21-0.48,10.8-1.09c-9.15-4.65-12.66-13.8-13.99-20.55
				c-0.95-4.22-0.81-16.71-0.81-16.71v-70.63h-19.88v79.16C556.24,240.75,556.24,270.57,580.12,270.57z"/>
			<g>
				<path class="st2" d="M624.83,232.22v-30.31c0-4.68-3.79-8.47-8.47-8.47h-11.49c0,5.97,0,30.47,0,40.57
					c0,9.17-7.53,18.31-17.45,20.37c1.99,3.19,6.11,9.24,13.13,12.25C600.55,266.64,624.83,257.53,624.83,232.22z"/>
			</g>
		</g>
		<g>
			<path class="st1" d="M724.8,395.93h-18.27v-70.86l-1.51-13.6h14.75l2.01,12.26c3.69-9.57,11.92-14.78,20.32-14.78
				c5.04,0,9.74,1.18,13.43,3.36L752,329.27c-3.69-2.01-7.56-3.36-11.92-3.36c-9.07,0-14.94,7.22-15.28,16.96V395.93z"/>
			<path class="st1" d="M817.87,332.29c0,25.86-32.07,29.22-47.52,29.39c0.67,10.91,6.88,21.49,21.16,21.49
				c9.91,0,17.13-4.53,21.16-7.39l6.21,13.27c-2.69,2.35-13.77,9.4-29.55,9.4c-27.71,0-39.12-17.8-39.12-42.99
				c0-24.68,14.27-46.51,40.97-46.51C807.63,308.95,817.87,317.35,817.87,332.29z M790,323.22c-13.43,0-19.81,13.1-20.32,25.52
				c9.07,0.17,30.39-2.69,30.39-15.62C800.07,326.92,796.04,323.22,790,323.22z"/>
			<path class="st1" d="M646.55,374.38c3.82,6.38,10.18,9.46,17.42,9.46c10.41,0,18.17-7.39,18.17-14.61v-43.49l-0.59-0.25
				c0,0-17.87-5.16-28.73,4.15c-4.07,3.48-7.39,8.99-8.85,17.55c-5.09,29.79-21.4,41.35-21.4,41.35
				c-6.55,5.37-16.79,9.74-29.22,9.74c-24.68,0-38.96-15.62-38.96-44.16c0-33.75,20.99-45.17,38.79-45.17
				c10.91,0,23,4.37,30.9,15.95l-12.59,10.41c-4.37-5.37-10.41-10.41-17.97-10.41c-11.25,0-19.14,9.24-19.14,28.38
				c0,15.58,5.08,26.49,16.8,28.65l0-0.01c0,0,28.86,4.98,35.74-30.58c12.48-64.54,73.33-36.52,73.33-36.52v64.98l1.51,16.12h-17.29
				l-1.17-8.9l-0.67-0.17c-5.21,7.56-13.77,11.25-23,11.25c-9.54,0-16.76-3.85-21.51-9.45
				C642.32,383.82,644.94,378.79,646.55,374.38z"/>
		</g>
	</g>
</g>
</svg>
